<?xml version="1.0" encoding="utf-8"?>
<!-- Svg Vector Icons : http://www.onlinewebfonts.com/icon -->
<!DOCTYPE svg PUBLIC "-//W3C//DTD SVG 1.1//EN" "http://www.w3.org/Graphics/SVG/1.1/DTD/svg11.dtd">
<svg version="1.1" xmlns="http://www.w3.org/2000/svg" xmlns:xlink="http://www.w3.org/1999/xlink" x="0px" y="0px" viewBox="0 0 1000 1000" enable-background="new 0 0 1000 1000" xml:space="preserve">
<metadata> Svg Vector Icons : http://www.onlinewebfonts.com/icon </metadata>
<g><g fill="white" stroke="0" transform="translate(0.000000,511.000000) scale(0.100000,-0.100000)"><path_disabled d="M4553.6,4999.2C3387,4877.4,2372.5,4402.7,1554.8,3593.1C777.7,2826.1,311,1898.9,136.5,778.9c-48.7-324.6-48.7-1014.5,0-1339.1c142-911,484.9-1710.4,1024.6-2384.1c793.3-988.1,1889-1613,3169.3-1809.9c322.6-48.7,1016.5-48.7,1339.1,0C6749-4587.8,7678.3-4129.2,8427-3394.7C9216.2-2617.6,9691-1680.3,9863.5-560.2c48.7,322.6,48.7,1016.5,0,1339.1c-233.3,1527.8-1073.3,2779.7-2392.2,3569c-499.1,298.3-1152.5,525.5-1781.4,620.9C5436.2,5007.3,4795.1,5023.5,4553.6,4999.2z M5407.8,4449.3c797.4-81.2,1558.3-379.4,2201.4-862.3c207-156.2,543.8-478.8,728.4-700c842-1008.4,1180.9-2365.8,913-3658.3c-351-1694.2-1708.4-3051.6-3388.4-3390.4c-781.2-156.2-1519.7-111.6-2274.5,140C2135.1-3534.7,1009-2266.6,710.7-779.4C552.5,1.8,595.1,726.1,840.6,1472.8C1477.7,3408.5,3393,4656.3,5407.8,4449.3z"/><path d="M3458,1874.5v-588.4h1542h1542v588.4v588.4H5000H3458V1874.5z"/><path d="M2443.5,616.6v-933.3h2546.4h2546.4v933.3v933.3h-355.1h-355.1v-294.2V961.5H4989.9H3153.6v294.2v294.2h-355.1h-355.1V616.6z"/><path d="M3620.3-1371.8V-2224H5000h1379.7v852.2v852.2H5000H3620.3V-1371.8z M5953.6-1077.6v-131.9H5000h-953.6v131.9v131.9H5000h953.6V-1077.6z M5953.6-1625.5v-131.9H5000h-953.6v131.9v131.9H5000h953.6V-1625.5z"/></g></g>
</svg>